<svg width="1440" height="27" viewBox="0 0 1440 27" fill="none" xmlns="http://www.w3.org/2000/svg">
<g opacity="0.25">
<path d="M0 6.85986C34.2864 6.85986 34.2863 19.5013 68.5727 19.5013C102.859 19.5013 102.859 6.85986 137.132 6.85986C171.405 6.85986 171.418 19.5013 205.705 19.5013C239.991 19.5013 239.991 6.85986 274.277 6.85986C308.564 6.85986 308.564 19.5013 342.837 19.5013C377.11 19.5013 377.123 6.85986 411.409 6.85986C445.696 6.85986 445.696 19.5013 479.982 19.5013C514.268 19.5013 514.268 6.85986 548.555 6.85986C582.841 6.85986 582.828 19.5013 617.114 19.5013C651.4 19.5013 651.4 6.85986 685.687 6.85986C719.973 6.85986 719.973 19.5013 754.246 19.5013C788.519 19.5013 788.532 6.85986 822.819 6.85986C857.105 6.85986 857.105 19.5013 891.405 19.5013C925.705 19.5013 925.678 6.85986 959.964 6.85986C994.251 6.85986 994.264 19.5013 1028.55 19.5013C1062.84 19.5013 1062.84 6.85986 1097.11 6.85986C1131.38 6.85986 1131.4 19.5013 1165.68 19.5013C1199.97 19.5013 1199.97 6.85986 1234.27 6.85986C1268.57 6.85986 1268.55 19.5013 1302.84 19.5013C1337.13 19.5013 1337.13 6.85986 1371.41 6.85986C1405.7 6.85986 1405.71 19.5013 1440 19.5013" fill="black"/>
<path d="M0 6.85986C34.2864 6.85986 34.2863 19.5013 68.5727 19.5013C102.859 19.5013 102.859 6.85986 137.132 6.85986C171.405 6.85986 171.418 19.5013 205.705 19.5013C239.991 19.5013 239.991 6.85986 274.277 6.85986C308.564 6.85986 308.564 19.5013 342.837 19.5013C377.11 19.5013 377.123 6.85986 411.409 6.85986C445.696 6.85986 445.696 19.5013 479.982 19.5013C514.268 19.5013 514.268 6.85986 548.555 6.85986C582.841 6.85986 582.828 19.5013 617.114 19.5013C651.4 19.5013 651.4 6.85986 685.687 6.85986C719.973 6.85986 719.973 19.5013 754.246 19.5013C788.519 19.5013 788.532 6.85986 822.819 6.85986C857.105 6.85986 857.105 19.5013 891.405 19.5013C925.705 19.5013 925.678 6.85986 959.964 6.85986C994.251 6.85986 994.264 19.5013 1028.55 19.5013C1062.84 19.5013 1062.84 6.85986 1097.11 6.85986C1131.38 6.85986 1131.4 19.5013 1165.68 19.5013C1199.97 19.5013 1199.97 6.85986 1234.27 6.85986C1268.57 6.85986 1268.55 19.5013 1302.84 19.5013C1337.13 19.5013 1337.13 6.85986 1371.41 6.85986C1405.7 6.85986 1405.71 19.5013 1440 19.5013" stroke="black" stroke-width="13" stroke-miterlimit="10"/>
</g>
</svg>
